<svg width="318" height="120" viewBox="0 0 318 120" fill="none" xmlns="http://www.w3.org/2000/svg">
<path d="M140.525 111.966L135.895 114.942V113.001L141.357 110.14H142.489V119.776H140.532V111.966H140.525Z" fill="black"/>
<path d="M151.84 111.775H143.704V110.134H154.558V110.951L147.977 119.777H145.437L151.84 111.775Z" fill="black"/>
<path d="M162.374 115.606V116.5H158.965V115.606H162.374Z" fill="black"/>
<path d="M166.045 118.633C166.166 114.955 174.277 115 174.277 113.071C174.277 111.998 173.324 111.583 170.867 111.583C168.949 111.583 167.1 112.062 166.333 112.439V110.715C167.356 110.248 169.256 109.929 171.245 109.929C174.571 109.929 176.317 110.715 176.317 112.694C176.317 116.577 168.955 116.149 168.085 118.122H176.112V119.776H166.045V118.633Z" fill="black"/>
<path d="M177.327 114.789C177.327 111.692 179.63 109.929 183.384 109.929C185.079 109.929 186.249 110.217 187.286 110.727V112.547C186.141 111.915 184.913 111.583 183.231 111.583C180.762 111.583 179.284 112.752 179.284 114.904C180.666 113.748 182.457 113.441 183.627 113.441C186.672 113.441 188.028 114.846 188.028 116.717C188.028 118.659 186.192 119.942 182.981 119.942C179.604 119.942 177.327 118.301 177.327 114.789ZM186.058 116.609C186.058 115.511 185.13 114.917 183.288 114.917C182.003 114.917 180.269 115.466 179.495 116.334C179.866 117.548 181.094 118.288 182.86 118.288C184.817 118.288 186.058 117.682 186.058 116.609Z" fill="black"/>
<path d="M193.189 115.108H195.159C195.159 117.407 196.029 118.346 197.916 118.346C199.79 118.346 200.673 117.407 200.673 115.108V111.775H194.469V110.134H202.63V115.102C202.63 118.685 200.743 119.987 197.916 119.987C195.083 119.994 193.189 118.691 193.189 115.108Z" fill="black"/>
<path d="M204.722 114.655V110.14H206.679V115.07C206.679 117.273 207.657 118.32 209.781 118.32C211.892 118.32 212.883 117.273 212.883 115.07V110.14H214.84V114.655C214.84 118.761 212.934 120 209.781 120C206.628 119.993 204.722 118.755 204.722 114.655Z" fill="black"/>
<path d="M216.586 110.14H218.543V118.129H225.272V119.783H216.586V110.14Z" fill="black"/>
<path d="M226.115 110.14H228.072V119.776H226.115V110.14Z" fill="black"/>
<path d="M233.746 118.633C233.868 114.955 241.978 115 241.978 113.071C241.978 111.998 241.025 111.583 238.569 111.583C236.65 111.583 234.801 112.062 234.034 112.439V110.715C235.051 110.248 236.957 109.929 238.946 109.929C242.272 109.929 244.018 110.715 244.018 112.694C244.018 116.577 236.65 116.149 235.786 118.122H243.813V119.776H233.746V118.633Z" fill="black"/>
<path d="M244.754 114.955C244.754 111.928 247.082 109.917 250.849 109.917C254.629 109.917 256.957 111.928 256.957 114.955C256.957 117.982 254.629 119.994 250.849 119.994C247.082 119.994 244.754 117.988 244.754 114.955ZM255 114.955C255 112.822 253.376 111.551 250.849 111.551C248.342 111.551 246.711 112.816 246.711 114.955C246.711 117.094 248.336 118.34 250.849 118.34C253.369 118.346 255 117.088 255 114.955Z" fill="black"/>
<path d="M257.398 118.633C257.52 114.955 265.63 115 265.63 113.071C265.63 111.998 264.677 111.583 262.221 111.583C260.302 111.583 258.454 112.062 257.686 112.439V110.715C258.71 110.248 260.609 109.929 262.598 109.929C265.924 109.929 267.67 110.715 267.67 112.694C267.67 116.577 260.309 116.149 259.439 118.122H267.466V119.776H257.398V118.633Z" fill="black"/>
<path d="M268.405 114.955C268.405 111.928 270.733 109.917 274.501 109.917C278.281 109.917 280.609 111.928 280.609 114.955C280.609 117.982 278.281 119.994 274.501 119.994C270.74 119.994 268.405 117.988 268.405 114.955ZM278.652 114.955C278.652 112.822 277.027 111.551 274.501 111.551C271.993 111.551 270.362 112.816 270.362 114.955C270.362 117.094 271.987 118.34 274.501 118.34C277.027 118.346 278.652 117.088 278.652 114.955Z" fill="black"/>
<path d="M47.9578 1.63599C59.4513 1.63599 67.1584 6.78308 67.491 14.4782H60.7305C60.3531 9.94413 55.6713 7.25564 48.0537 7.25564C40.0588 7.25564 34.7181 11.7386 34.7181 18.9164C34.7181 26.0942 40.014 30.5325 47.9642 30.5325C55.1532 30.5325 60.6409 27.6013 61.4468 22.6905H43.0009V17.7797H68.0218V35.4433H62.5341L63.0074 27.7929H62.5789C59.5536 33.9809 53.8292 36.1968 47.8234 36.1968C35.9078 36.1968 28.0088 29.3 28.0088 18.9164C27.996 8.52644 35.9462 1.63599 47.9578 1.63599Z" fill="black"/>
<path d="M47.8229 36.2792C41.9579 36.2792 36.9677 34.631 33.3931 31.5127C29.8164 28.3925 27.9258 24.0366 27.9258 18.917C27.92 14.2355 29.5293 10.1497 32.5788 7.10041C36.1567 3.52427 41.6176 1.5542 47.9566 1.5542C53.5978 1.5542 58.4383 2.78158 61.9541 5.10352C65.4642 7.42163 67.4073 10.6625 67.5723 14.4749C67.573 14.4973 67.5647 14.519 67.5493 14.535C67.534 14.5509 67.5122 14.5605 67.4898 14.5605H60.73C60.6871 14.5605 60.6513 14.5279 60.6481 14.4851C60.2758 10.0092 55.5672 7.33733 48.0532 7.33733C40.002 7.33733 34.7995 11.8822 34.7995 18.9164C34.7995 25.9231 39.9668 30.4507 47.9637 30.4507C55.2806 30.4507 60.5195 27.441 61.3484 22.7729H43.0004C42.955 22.7729 42.9185 22.7358 42.9185 22.6911V17.7803C42.9185 17.735 42.9556 17.6986 43.0004 17.6986H68.0213C68.0667 17.6986 68.1032 17.7356 68.1032 17.7803V35.4439C68.1032 35.4892 68.0661 35.5256 68.0213 35.5256H62.5336C62.5106 35.5256 62.4895 35.5161 62.4735 35.4995C62.4581 35.4828 62.4498 35.4605 62.4517 35.4381L62.9193 27.8746H62.6296C59.209 34.8193 52.6928 36.2792 47.8229 36.2792ZM47.9573 1.71768C41.6624 1.71768 36.2424 3.67051 32.6959 7.21536C29.6776 10.2327 28.0851 14.2789 28.0908 18.9157C28.0908 23.9868 29.9616 28.2999 33.5018 31.3882C37.0458 34.4803 41.9982 36.1144 47.8236 36.1144C52.657 36.1144 59.1278 34.6642 62.5055 27.7565C62.5189 27.7284 62.5477 27.7105 62.579 27.7105H63.0076C63.0306 27.7105 63.0517 27.7201 63.0677 27.7367C63.083 27.7533 63.0913 27.7756 63.0894 27.798L62.6219 35.3615H67.9401V17.8614H43.0823V22.6087H61.4463C61.4706 22.6087 61.493 22.6196 61.509 22.6375C61.525 22.6554 61.5314 22.6796 61.5275 22.7039C60.7389 27.5093 55.4149 30.6142 47.9637 30.6142C39.867 30.6142 34.6351 26.0227 34.6351 18.9164C34.6351 11.7832 39.9016 7.17321 48.0532 7.17321C55.6202 7.17321 60.3788 9.87128 60.8054 14.3957H67.4048C67.2174 10.6746 65.3024 7.51039 61.864 5.23954C58.375 2.93548 53.5665 1.71768 47.9573 1.71768Z" fill="black"/>
<path d="M75.0059 2.3894H106.928V8.00905H81.7216V15.2316H104.139V20.4234H81.7216V29.7724H106.928V35.4368H75.0059V2.3894Z" fill="black"/>
<path d="M106.928 35.5191H75.0057C74.9603 35.5191 74.9238 35.4821 74.9238 35.4374V2.38936C74.9238 2.34402 74.9609 2.30762 75.0057 2.30762H106.928C106.973 2.30762 107.01 2.34466 107.01 2.38936V8.00901C107.01 8.05435 106.973 8.09075 106.928 8.09075H81.8033V15.1492H104.139C104.184 15.1492 104.22 15.1862 104.22 15.2309V20.4227C104.22 20.468 104.183 20.5044 104.139 20.5044H81.8033V29.6894H106.928C106.973 29.6894 107.01 29.7264 107.01 29.7711V35.4355C107.01 35.4821 106.973 35.5191 106.928 35.5191ZM75.0876 35.355H106.845V29.8541H81.7214C81.676 29.8541 81.6396 29.8171 81.6396 29.7724V20.4233C81.6396 20.378 81.6767 20.3416 81.7214 20.3416H104.057V15.3133H81.7214C81.676 15.3133 81.6396 15.2762 81.6396 15.2315V8.00901C81.6396 7.96367 81.6767 7.92727 81.7214 7.92727H106.846V2.47174H75.0882V35.355H75.0876Z" fill="black"/>
<path d="M113.88 2.3894H119.982L144.766 26.1899V2.3894H151.482V35.4432H145.335L120.602 11.6427V35.4432H113.886V2.3894H113.88Z" fill="black"/>
<path d="M151.481 35.5249H145.335C145.314 35.5249 145.293 35.5166 145.278 35.5019L120.684 11.8348V35.4425C120.684 35.4878 120.647 35.5242 120.602 35.5242H113.886C113.841 35.5242 113.804 35.4872 113.804 35.4425V2.42129C113.8 2.41107 113.798 2.40085 113.798 2.38936C113.798 2.34402 113.835 2.30762 113.88 2.30762H119.981C120.003 2.30762 120.023 2.31592 120.038 2.33061L144.684 25.9976V2.38936C144.684 2.34402 144.721 2.30762 144.766 2.30762H151.481C151.527 2.30762 151.563 2.34466 151.563 2.38936V35.4431C151.563 35.4885 151.527 35.5249 151.481 35.5249ZM145.368 35.3614H151.4V2.47174H144.848V26.1905C144.848 26.2231 144.828 26.2531 144.798 26.2659C144.768 26.2786 144.733 26.2722 144.709 26.2492L119.948 2.47174H113.968V35.3614H120.519V11.6426C120.519 11.6101 120.539 11.58 120.569 11.5673C120.599 11.5545 120.634 11.5609 120.658 11.5839L145.368 35.3614Z" fill="black"/>
<path d="M170.535 8.00906H155.876V2.3894H191.962V8.00906H177.251V35.4432H170.535V8.00906Z" fill="black"/>
<path d="M177.251 35.5249H170.535C170.49 35.5249 170.453 35.4878 170.453 35.4431V8.09075H155.876C155.83 8.09075 155.794 8.05371 155.794 8.00901V2.38936C155.794 2.34402 155.831 2.30762 155.876 2.30762H191.962C192.007 2.30762 192.044 2.34466 192.044 2.38936V8.00901C192.044 8.05435 192.007 8.09075 191.962 8.09075H177.333V35.4431C177.333 35.4885 177.296 35.5249 177.251 35.5249ZM170.617 35.3614H177.169V8.00901C177.169 7.96367 177.206 7.92727 177.251 7.92727H191.88V2.47174H155.958V7.92727H170.535C170.581 7.92727 170.617 7.96431 170.617 8.00901V35.3614Z" fill="black"/>
<path d="M193.663 24.8173H200.66C200.615 28.2657 204.824 30.5327 211.725 30.5327C219.528 30.5327 223.833 29.1151 223.833 25.9987C223.833 17.0711 194.558 27.4164 194.558 12.0709C194.558 5.32093 201.703 1.63623 211.962 1.63623C222.745 1.63623 229.839 6.17027 229.89 13.016H223.033C223.033 9.5229 218.869 7.25588 212.154 7.25588C205.297 7.25588 201.37 8.67357 201.37 11.5089C201.37 19.8171 230.6 10.187 230.6 25.7241C230.6 32.6209 223.27 36.2099 212.013 36.2099C200.711 36.2035 193.567 31.5737 193.663 24.8173Z" fill="black"/>
<path d="M212.013 36.292C205.015 36.2882 199.422 34.5238 196.265 31.325C194.474 29.5101 193.546 27.2591 193.581 24.8165C193.582 24.7718 193.618 24.736 193.663 24.736H200.66C200.682 24.736 200.703 24.7449 200.719 24.7603C200.734 24.7756 200.743 24.7973 200.742 24.819C200.729 25.9008 201.136 26.8689 201.955 27.6978C203.711 29.4737 207.181 30.4514 211.724 30.4514C219.704 30.4514 223.75 28.9533 223.75 25.9991C223.75 22.2142 218.364 21.9645 212.129 21.6752C203.854 21.2908 194.476 20.8552 194.476 12.0713C194.476 5.58448 201.176 1.55493 211.961 1.55493C217.261 1.55493 221.768 2.63927 224.993 4.69044C228.224 6.74545 229.945 9.62424 229.97 13.0158C229.971 13.0375 229.962 13.0586 229.946 13.0739C229.932 13.0893 229.91 13.0982 229.888 13.0982H223.032C222.986 13.0982 222.95 13.0612 222.95 13.0165C222.95 9.56741 218.711 7.33806 212.152 7.33806C205.151 7.33806 201.451 8.78066 201.451 11.5094C201.451 14.9418 206.624 15.2477 212.613 15.6028C216.658 15.8423 221.242 16.1143 224.722 17.4458C228.732 18.9803 230.68 21.6886 230.68 25.7245C230.68 29.1244 228.96 31.7823 225.566 33.6259C222.354 35.3699 217.668 36.292 212.013 36.292ZM193.744 24.8988C193.731 27.298 194.617 29.4207 196.382 31.2095C199.509 34.3769 205.059 36.1235 212.013 36.1279C217.641 36.1279 222.3 35.2128 225.488 33.4809C228.825 31.6686 230.517 29.0587 230.517 25.7239C230.517 21.7633 228.602 19.1055 224.664 17.5978C221.208 16.2752 216.637 16.0038 212.604 15.765C206.532 15.4055 201.288 15.0945 201.288 11.5081C201.288 9.53037 203.173 7.17267 212.154 7.17267C218.761 7.17267 223.048 9.43075 223.114 12.9328H229.806C229.755 9.6351 228.061 6.83357 224.906 4.8271C221.707 2.79253 217.231 1.71714 211.962 1.71714C201.279 1.71714 194.641 5.6841 194.641 12.0694C194.641 20.6969 203.936 21.1286 212.137 21.5092C218.457 21.8023 223.914 22.0558 223.914 25.9972C223.914 29.0599 219.813 30.6136 211.725 30.6136C207.137 30.6136 203.626 29.6181 201.839 27.8108C201.009 26.9711 200.585 25.9915 200.578 24.8976H193.744V24.8988Z" fill="black"/>
<path d="M236.458 2.3894H268.38V8.00905H243.174V15.2316H265.592V20.4234H243.174V29.7724H268.38V35.4368H236.458V2.3894Z" fill="black"/>
<path d="M268.38 35.5191H236.458C236.412 35.5191 236.376 35.4821 236.376 35.4374V2.38936C236.376 2.34402 236.412 2.30762 236.458 2.30762H268.38C268.425 2.30762 268.462 2.34466 268.462 2.38936V8.00901C268.462 8.05435 268.425 8.09075 268.38 8.09075H243.255V15.1492H265.591C265.637 15.1492 265.673 15.1862 265.673 15.2309V20.4227C265.673 20.468 265.637 20.5044 265.591 20.5044H243.255V29.6894H268.38C268.425 29.6894 268.462 29.7264 268.462 29.7711V35.4355C268.462 35.4821 268.426 35.5191 268.38 35.5191ZM236.54 35.355H268.298V29.8541H243.174C243.128 29.8541 243.092 29.8171 243.092 29.7724V20.4233C243.092 20.378 243.128 20.3416 243.174 20.3416H265.51V15.3133H243.174C243.128 15.3133 243.092 15.2762 243.092 15.2315V8.00901C243.092 7.96367 243.128 7.92727 243.174 7.92727H268.298V2.47174H236.54V35.355Z" fill="black"/>
<path d="M16.5977 46.325H46.9592V51.9446H23.3134V59.4034H44.6439V64.5952H23.3134V79.3787H16.5977V46.325Z" fill="black"/>
<path d="M23.3132 79.4604H16.5975C16.5521 79.4604 16.5156 79.424 16.5156 79.3787V46.3249C16.5156 46.2796 16.5527 46.2432 16.5975 46.2432H46.959C47.0045 46.2432 47.0409 46.2802 47.0409 46.3249V51.9446C47.0409 51.9899 47.0038 52.0263 46.959 52.0263H23.3957V59.321H44.6437C44.6891 59.321 44.7256 59.358 44.7256 59.4027V64.5945C44.7256 64.6399 44.6885 64.6763 44.6437 64.6763H23.3957V79.3774C23.3957 79.424 23.3586 79.4604 23.3132 79.4604ZM16.68 79.2969H23.2314V64.5958C23.2314 64.5505 23.2685 64.5141 23.3132 64.5141H44.5612V59.4851H23.3132C23.2678 59.4851 23.2314 59.4481 23.2314 59.4034V51.9446C23.2314 51.8992 23.2685 51.8628 23.3132 51.8628H46.8765V46.4066H16.68V79.2969Z" fill="black"/>
<path d="M52.4473 46.325H84.3694V51.9446H59.163V59.1671H81.5808V64.3589H59.163V73.708H84.3694V79.3723H52.4473V46.325Z" fill="black"/>
<path d="M84.3693 79.454H52.4471C52.4017 79.454 52.3652 79.4176 52.3652 79.3723V46.3249C52.3652 46.2796 52.4023 46.2432 52.4471 46.2432H84.3693C84.4147 46.2432 84.4511 46.2802 84.4511 46.3249V51.9446C84.4511 51.9899 84.414 52.0263 84.3693 52.0263H59.2447V59.0847H81.58C81.6254 59.0847 81.6618 59.1217 81.6618 59.1664V64.3582C81.6618 64.4036 81.6248 64.44 81.58 64.44H59.2447V73.6256H84.3693C84.4147 73.6256 84.4511 73.6619 84.4511 73.7073V79.3716C84.4518 79.4176 84.4147 79.454 84.3693 79.454ZM52.529 79.2905H84.2867V73.7897H59.1628C59.1174 73.7897 59.081 73.7533 59.081 73.7079V64.3589C59.081 64.3135 59.1181 64.2771 59.1628 64.2771H81.4981V59.2488H59.1628C59.1174 59.2488 59.081 59.2118 59.081 59.1671V51.9446C59.081 51.8992 59.1181 51.8628 59.1628 51.8628H84.2874V46.4066H52.529V79.2905Z" fill="black"/>
<path d="M90.8486 46.325H122.771V51.9446H97.5644V59.1671H119.982V64.3589H97.5644V73.708H122.771V79.3723H90.8486V46.325Z" fill="black"/>
<path d="M122.771 79.454H90.8485C90.8031 79.454 90.7666 79.4176 90.7666 79.3723V46.3249C90.7666 46.2796 90.8037 46.2432 90.8485 46.2432H122.771C122.816 46.2432 122.853 46.2802 122.853 46.3249V51.9446C122.853 51.9899 122.815 52.0263 122.771 52.0263H97.6461V59.0847H119.981C120.027 59.0847 120.063 59.1217 120.063 59.1664V64.3582C120.063 64.4036 120.026 64.44 119.981 64.44H97.6461V73.6256H122.771C122.816 73.6256 122.853 73.6619 122.853 73.7073V79.3716C122.853 79.4176 122.816 79.454 122.771 79.454ZM90.9303 79.2905H122.688V73.7897H97.5642C97.5188 73.7897 97.4823 73.7533 97.4823 73.7079V64.3589C97.4823 64.3135 97.5194 64.2771 97.5642 64.2771H119.9V59.2488H97.5642C97.5188 59.2488 97.4823 59.2118 97.4823 59.1671V51.9446C97.4823 51.8992 97.5194 51.8628 97.5642 51.8628H122.689V46.4066H90.931V79.2905H90.9303Z" fill="black"/>
<path d="M127.407 68.759H134.404C134.36 72.2074 138.568 74.4744 145.469 74.4744C153.272 74.4744 157.577 73.0567 157.577 69.9404C157.577 61.0128 128.303 71.358 128.303 56.0126C128.303 49.2626 135.447 45.5779 145.706 45.5779C156.49 45.5779 163.583 50.1119 163.634 56.9577H156.777C156.777 53.4646 152.614 51.1975 145.898 51.1975C139.041 51.1975 135.114 52.6152 135.114 55.4506C135.114 63.7587 164.344 54.1287 164.344 69.6658C164.344 76.5626 157.014 80.1515 145.757 80.1515C134.449 80.1388 127.311 75.5089 127.407 68.759Z" fill="black"/>
<path d="M145.757 80.2332C138.755 80.2255 133.162 78.4598 130.006 75.2604C128.217 73.4462 127.29 71.1983 127.325 68.7576C127.326 68.7129 127.362 68.6771 127.407 68.6771H134.404C134.426 68.6771 134.447 68.6861 134.462 68.7014C134.478 68.7167 134.487 68.7385 134.486 68.7602C134.472 69.8413 134.88 70.8101 135.699 71.639C137.455 73.4143 140.924 74.3926 145.469 74.3926C153.448 74.3926 157.494 72.8944 157.494 69.9403C157.494 66.1553 152.109 65.9056 145.873 65.6157C137.598 65.2313 128.22 64.7964 128.22 56.0125C128.22 49.5256 134.92 45.4961 145.705 45.4961C151.006 45.4961 155.512 46.5804 158.738 48.6316C161.968 50.6866 163.689 53.5654 163.714 56.957C163.715 56.9787 163.706 56.9998 163.691 57.0151C163.676 57.0304 163.654 57.0394 163.632 57.0394H156.776C156.731 57.0394 156.694 57.0023 156.694 56.9576C156.694 53.5086 152.456 51.2792 145.896 51.2792C138.895 51.2792 135.195 52.7218 135.195 55.4505C135.195 58.8824 140.368 59.1889 146.357 59.5439C150.402 59.7834 154.986 60.0548 158.466 61.3869C162.476 62.9208 164.425 65.6298 164.425 69.6657C164.425 73.0649 162.704 75.7234 159.31 77.5671C156.099 79.3111 151.412 80.2332 145.757 80.2332ZM127.488 68.8406C127.474 71.2373 128.361 73.3581 130.123 75.1455C133.248 78.3129 138.8 80.0614 145.757 80.0697C151.385 80.0697 156.044 79.154 159.233 77.4227C162.57 75.6104 164.262 73.0005 164.262 69.6657C164.262 65.7051 162.347 63.0473 158.408 61.5396C154.952 60.217 150.381 59.9463 146.348 59.7074C140.276 59.3479 135.032 59.0369 135.032 55.4505C135.032 53.4728 136.917 51.1151 145.897 51.1151C152.505 51.1151 156.793 53.3732 156.858 56.8752H163.55C163.498 53.5775 161.804 50.776 158.649 48.7695C155.451 46.735 150.974 45.6596 145.705 45.6596C135.021 45.6596 128.384 49.6265 128.384 56.0119C128.384 64.6393 137.679 65.071 145.88 65.4516C152.2 65.7447 157.658 65.9982 157.658 69.9397C157.658 73.0024 153.557 74.5554 145.468 74.5554C140.879 74.5554 137.368 73.5599 135.582 71.7526C134.752 70.9135 134.327 69.9333 134.32 68.8394H127.488V68.8406Z" fill="black"/>
<path d="M179.573 51.9446H164.913V46.325H200.999V51.9446H186.288V79.3787H179.573V51.9446Z" fill="black"/>
<path d="M186.288 79.4604H179.572C179.527 79.4604 179.491 79.424 179.491 79.3787V52.0263H164.913C164.868 52.0263 164.831 51.9893 164.831 51.9446V46.3249C164.831 46.2796 164.868 46.2432 164.913 46.2432H200.999C201.044 46.2432 201.081 46.2802 201.081 46.3249V51.9446C201.081 51.9899 201.044 52.0263 200.999 52.0263H186.37V79.3787C186.37 79.424 186.334 79.4604 186.288 79.4604ZM179.654 79.2969H186.206V51.9446C186.206 51.8992 186.243 51.8628 186.288 51.8628H200.917V46.4066H164.995V51.8622H179.572C179.618 51.8622 179.654 51.8992 179.654 51.9439V79.2969Z" fill="black"/>
<path d="M204.869 46.325H236.791V51.9446H211.585V59.1671H234.003V64.3589H211.585V73.708H236.791V79.3723H204.869V46.325Z" fill="black"/>
<path d="M236.791 79.454H204.869C204.824 79.454 204.787 79.4176 204.787 79.3723V46.3249C204.787 46.2796 204.824 46.2432 204.869 46.2432H236.791C236.837 46.2432 236.873 46.2802 236.873 46.3249V51.9446C236.873 51.9899 236.837 52.0263 236.791 52.0263H211.667V59.0847H234.003C234.049 59.0847 234.085 59.1217 234.085 59.1664V64.3582C234.085 64.4036 234.049 64.44 234.003 64.44H211.667V73.6256H236.791C236.837 73.6256 236.873 73.6619 236.873 73.7073V79.3716C236.873 79.4176 236.837 79.454 236.791 79.454ZM204.951 79.2905H236.709V73.7897H211.585C211.539 73.7897 211.503 73.7533 211.503 73.7079V64.3589C211.503 64.3135 211.539 64.2771 211.585 64.2771H233.921V59.2488H211.585C211.539 59.2488 211.503 59.2118 211.503 59.1671V51.9446C211.503 51.8992 211.539 51.8628 211.585 51.8628H236.709V46.4066H204.951V79.2905Z" fill="black"/>
<path d="M243.27 46.3252H249.371L274.156 70.1257V46.3252H280.871V79.379H274.725L249.985 55.5849V79.3854H243.27V46.3252Z" fill="black"/>
<path d="M249.985 79.4663H243.269C243.224 79.4663 243.188 79.4299 243.188 79.3846V46.3244C243.188 46.2791 243.224 46.2427 243.269 46.2427H249.371C249.392 46.2427 249.413 46.251 249.428 46.2657L274.073 69.9321V46.3251C274.073 46.2797 274.11 46.2433 274.155 46.2433H280.871C280.917 46.2433 280.953 46.2804 280.953 46.3251V79.3788C280.953 79.4242 280.917 79.4606 280.871 79.4606H274.725C274.704 79.4606 274.684 79.4523 274.668 79.4382L250.067 55.7776V79.3852C250.067 79.4305 250.031 79.4663 249.985 79.4663ZM243.351 79.3035H249.903V55.5847C249.903 55.5521 249.922 55.5221 249.953 55.5094C249.983 55.4959 250.018 55.503 250.042 55.526L274.759 79.2971H280.79V46.4068H274.238V70.1249C274.238 70.1581 274.219 70.1875 274.188 70.2003C274.158 70.213 274.122 70.2067 274.099 70.1843L249.338 46.4068H243.351V79.3035Z" fill="black"/>
<path d="M96.8604 97.0611C96.8604 95.0431 97.9349 93.6765 99.6362 93.6765C100.711 93.6765 101.414 94.2768 101.708 94.7238V93.6254V91.3137H103.525V100.254H101.76V99.3984C101.465 99.8326 100.736 100.458 99.6362 100.458C97.9349 100.458 96.8604 99.0791 96.8604 97.0611ZM101.792 97.0611C101.792 95.7073 101.178 95.0431 100.282 95.0431C99.4379 95.0431 98.7727 95.5668 98.7727 97.0611C98.7727 98.5554 99.4379 99.0791 100.282 99.0791C101.171 99.0791 101.792 98.4149 101.792 97.0611Z" fill="#E20613"/>
<path d="M105.214 91.2822H107.145V92.9937H105.214V91.2822ZM105.278 93.8622H107.094V100.248H105.278V93.8622Z" fill="#E20613"/>
<path d="M108.283 101.43C108.283 100.868 108.667 100.408 109.038 100.165C108.667 99.9097 108.437 99.5649 108.437 98.9901C108.437 98.3515 108.923 97.879 109.447 97.598C109.025 97.2531 108.756 96.6784 108.756 96.0654C108.756 94.6349 109.921 93.677 111.532 93.677C112.684 93.677 113.605 94.2007 114.027 94.967C114.065 94.124 114.308 93.8686 115.165 93.8686H115.651V95.2479H114.948C114.551 95.2479 114.449 95.3374 114.372 95.9887L114.359 96.1037C114.206 97.483 113.093 98.326 111.596 98.326C111.123 98.326 110.65 98.2749 110.266 98.1089C109.908 98.211 109.78 98.3515 109.78 98.5559C109.78 98.8241 110.048 98.8369 110.419 98.8369H113.17C114.538 98.8369 115.395 99.7309 115.395 100.765C115.395 102.055 114.423 102.745 113.17 102.745H110.202C108.846 102.745 108.283 102.247 108.283 101.43ZM112.812 101.43C113.413 101.43 113.605 101.187 113.605 100.829C113.605 100.536 113.413 100.255 112.812 100.255H110.01C109.857 100.344 109.678 100.574 109.678 100.829C109.678 101.238 109.972 101.43 110.317 101.43H112.812ZM112.709 96.0526C112.709 95.3884 112.261 94.9031 111.584 94.9031C110.906 94.9031 110.458 95.3884 110.458 96.0526C110.458 96.704 110.906 97.1382 111.584 97.1382C112.261 97.1382 112.709 96.704 112.709 96.0526Z" fill="#E20613"/>
<path d="M116.624 91.2822H118.556V92.9937H116.624V91.2822ZM116.688 93.8622H118.504V100.248H116.688V93.8622Z" fill="#E20613"/>
<path d="M120.896 98.5813V95.2478H119.553V93.8685H120.896V91.8633H122.712V93.8685H124.375V95.2478H122.712V98.2492C122.712 98.6324 122.879 98.8112 123.275 98.8112H124.657V100.254H122.52C121.484 100.254 120.896 99.5775 120.896 98.5813Z" fill="#E20613"/>
<path d="M125.45 98.6197C125.45 96.8317 127.343 96.308 129.466 96.1037V95.861C129.466 95.3118 129.147 94.9797 128.418 94.9797C127.586 94.9797 127.164 95.3884 127.01 95.9887L125.373 95.6311C125.475 94.6349 126.537 93.677 128.405 93.677C130.196 93.677 131.257 94.4689 131.257 96.1548V98.492C131.257 98.8113 131.296 98.8752 131.641 98.8752H132.204V100.255H130.81C130.093 100.255 129.722 99.8969 129.658 99.3222C129.313 99.8586 128.597 100.459 127.471 100.459C126.32 100.459 125.45 99.7437 125.45 98.6197ZM129.466 97.6363V97.2276C128.29 97.3681 127.292 97.598 127.292 98.4409C127.292 98.8624 127.573 99.1306 128.123 99.1306C128.827 99.1306 129.466 98.6708 129.466 97.6363Z" fill="#E20613"/>
<path d="M132.793 98.6197C132.793 96.8317 134.686 96.308 136.809 96.1037V95.861C136.809 95.3118 136.489 94.9797 135.76 94.9797C134.929 94.9797 134.507 95.3884 134.353 95.9887L132.716 95.6311C132.818 94.6349 133.88 93.677 135.748 93.677C137.538 93.677 138.6 94.4689 138.6 96.1548V98.492C138.6 98.8113 138.638 98.8752 138.984 98.8752H139.547V100.255H138.152C137.436 100.255 137.065 99.8969 137.001 99.3222C136.656 99.8586 135.939 100.459 134.814 100.459C133.662 100.459 132.793 99.7437 132.793 98.6197ZM136.809 97.6363V97.2276C135.632 97.3681 134.635 97.598 134.635 98.4409C134.635 98.8624 134.916 99.1306 135.466 99.1306C136.17 99.1306 136.809 98.6708 136.809 97.6363Z" fill="#E20613"/>
<path d="M140.507 91.3079H142.323V100.248H140.507V91.3079Z" fill="#E20613"/>
<path d="M146.672 97.0488C146.672 95.0436 148.053 93.677 149.908 93.677C152.057 93.677 153.183 95.3629 153.004 97.4958H148.488C148.539 98.6197 149.141 99.0795 149.921 99.0795C150.74 99.0795 151.136 98.5687 151.405 97.9684L153.029 98.5942C152.671 99.4116 151.865 100.459 149.921 100.459C147.951 100.459 146.672 99.1434 146.672 97.0488ZM151.213 96.2122C151.136 95.4204 150.676 94.9734 149.908 94.9734C149.179 94.9734 148.68 95.4076 148.552 96.2122H151.213Z" fill="#E20613"/>
<path d="M154.386 93.862H156.151V94.8454C156.42 94.4112 157.034 93.6704 158.211 93.6704C159.694 93.6704 160.321 94.5772 160.321 95.9694V100.248H158.505V96.3653C158.505 95.5223 158.108 95.1647 157.481 95.1647C156.215 95.1647 156.202 96.5441 156.202 97.221V100.248H154.386V93.862Z" fill="#E20613"/>
<path d="M164.594 97.0488C164.594 94.9925 166.103 93.677 168.035 93.677C169.57 93.677 170.657 94.5072 171.079 95.5928L169.404 96.2186C169.148 95.4906 168.636 95.1075 167.971 95.1075C167.114 95.1075 166.423 95.7333 166.423 97.0488C166.423 98.3643 167.139 99.0157 167.984 99.0157C168.726 99.0157 169.186 98.6197 169.467 97.8023L171.182 98.4154C170.696 99.6415 169.531 100.459 168.022 100.459C166.052 100.459 164.594 99.1051 164.594 97.0488Z" fill="#E20613"/>
<path d="M172.319 93.8623H174.097V95.3183C174.315 94.7947 174.878 93.7346 176.425 93.7346C176.528 93.7346 176.617 93.7346 176.72 93.7474V95.6121C176.464 95.5866 176.234 95.5738 176.016 95.5738C174.711 95.5738 174.136 96.0847 174.136 97.6812V100.248H172.319V93.8623Z" fill="#E20613"/>
<path d="M177.271 97.0488C177.271 95.0436 178.652 93.677 180.507 93.677C182.656 93.677 183.782 95.3629 183.602 97.4958H179.087C179.138 98.6197 179.739 99.0795 180.52 99.0795C181.338 99.0795 181.735 98.5687 182.003 97.9684L183.628 98.5942C183.27 99.4116 182.464 100.459 180.52 100.459C178.55 100.459 177.271 99.1434 177.271 97.0488ZM181.812 96.2122C181.735 95.4204 181.274 94.9734 180.507 94.9734C179.778 94.9734 179.279 95.4076 179.151 96.2122H181.812Z" fill="#E20613"/>
<path d="M184.613 98.6197C184.613 96.8317 186.506 96.308 188.63 96.1037V95.861C188.63 95.3118 188.31 94.9797 187.581 94.9797C186.749 94.9797 186.327 95.3884 186.173 95.9887L184.536 95.6311C184.638 94.6349 185.7 93.677 187.568 93.677C189.359 93.677 190.42 94.4689 190.42 96.1548V98.492C190.42 98.8113 190.459 98.8752 190.804 98.8752H191.367V100.255H189.973C189.256 100.255 188.885 99.8969 188.821 99.3222C188.476 99.8586 187.76 100.459 186.634 100.459C185.483 100.459 184.613 99.7437 184.613 98.6197ZM188.63 97.6363V97.2276C187.453 97.3681 186.455 97.598 186.455 98.4409C186.455 98.8624 186.736 99.1306 187.286 99.1306C187.99 99.1306 188.63 98.6708 188.63 97.6363Z" fill="#E20613"/>
<path d="M192.876 98.5813V95.2478H191.533V93.8685H192.876V91.8633H194.693V93.8685H196.356V95.2478H194.693V98.2492C194.693 98.6324 194.859 98.8112 195.256 98.8112H196.637V100.254H194.501C193.465 100.254 192.876 99.5775 192.876 98.5813Z" fill="#E20613"/>
<path d="M197.725 91.2822H199.656V92.9937H197.725V91.2822ZM197.789 93.8622H199.605V100.248H197.789V93.8622Z" fill="#E20613"/>
<path d="M200.922 97.0488C200.922 95.0436 202.303 93.677 204.158 93.677C206.307 93.677 207.433 95.3629 207.254 97.4958H202.738C202.789 98.6197 203.391 99.0795 204.171 99.0795C204.99 99.0795 205.386 98.5687 205.655 97.9684L207.279 98.5942C206.921 99.4116 206.115 100.459 204.171 100.459C202.201 100.459 200.922 99.1434 200.922 97.0488ZM205.463 96.2122C205.386 95.4204 204.926 94.9734 204.158 94.9734C203.429 94.9734 202.93 95.4076 202.802 96.2122H205.463Z" fill="#E20613"/>
<path d="M209.134 95.2416H207.894V93.8622H209.134V92.981C209.134 91.9848 209.697 91.3079 210.733 91.3079H212.703V92.7511H211.514C211.117 92.7511 210.951 92.9299 210.951 93.3131V93.8622H212.435V95.2416H210.951V100.248H209.134V95.2416Z" fill="#E20613"/>
<path d="M215.94 98.6197C215.94 96.8317 217.833 96.308 219.957 96.1037V95.861C219.957 95.3118 219.637 94.9797 218.908 94.9797C218.076 94.9797 217.654 95.3884 217.501 95.9887L215.863 95.6311C215.966 94.6349 217.027 93.677 218.895 93.677C220.686 93.677 221.748 94.4689 221.748 96.1548V98.492C221.748 98.8113 221.786 98.8752 222.131 98.8752H222.694V100.255H221.3C220.584 100.255 220.213 99.8969 220.149 99.3222C219.803 99.8586 219.087 100.459 217.961 100.459C216.81 100.459 215.94 99.7437 215.94 98.6197ZM219.957 97.6363V97.2276C218.78 97.3681 217.782 97.598 217.782 98.4409C217.782 98.8624 218.063 99.1306 218.614 99.1306C219.317 99.1306 219.957 98.6708 219.957 97.6363Z" fill="#E20613"/>
<path d="M223.653 91.3079H225.47V100.248H223.653V91.3079Z" fill="#E20613"/>
<path d="M227.888 98.5813V95.2478H226.545V93.8685H227.888V91.8633H229.705V93.8685H231.367V95.2478H229.705V98.2492C229.705 98.6324 229.871 98.8112 230.267 98.8112H231.649V100.254H229.513C228.476 100.254 227.888 99.5775 227.888 98.5813Z" fill="#E20613"/>
<path d="M232.301 97.0488C232.301 95.0436 233.682 93.677 235.537 93.677C237.686 93.677 238.812 95.3629 238.633 97.4958H234.117C234.168 98.6197 234.77 99.0795 235.55 99.0795C236.369 99.0795 236.765 98.5687 237.034 97.9684L238.658 98.5942C238.3 99.4116 237.494 100.459 235.55 100.459C233.58 100.459 232.301 99.1434 232.301 97.0488ZM236.842 96.2122C236.765 95.4204 236.305 94.9734 235.537 94.9734C234.808 94.9734 234.309 95.4076 234.181 96.2122H236.842Z" fill="#E20613"/>
<path d="M240.015 93.8623H241.793V95.3183C242.01 94.7947 242.573 93.7346 244.121 93.7346C244.223 93.7346 244.313 93.7346 244.415 93.7474V95.6121C244.159 95.5866 243.929 95.5738 243.712 95.5738C242.407 95.5738 241.831 96.0847 241.831 97.6812V100.248H240.015V93.8623Z" fill="#E20613"/>
<path d="M245.515 93.862H247.28V94.8454C247.549 94.4112 248.163 93.6704 249.339 93.6704C250.823 93.6704 251.45 94.5772 251.45 95.9694V100.248H249.634V96.3653C249.634 95.5223 249.237 95.1647 248.61 95.1647C247.344 95.1647 247.331 96.5441 247.331 97.221V100.248H245.515V93.862Z" fill="#E20613"/>
<path d="M252.781 98.6197C252.781 96.8317 254.674 96.308 256.797 96.1037V95.861C256.797 95.3118 256.478 94.9797 255.749 94.9797C254.917 94.9797 254.495 95.3884 254.341 95.9887L252.704 95.6311C252.806 94.6349 253.868 93.677 255.736 93.677C257.527 93.677 258.588 94.4689 258.588 96.1548V98.492C258.588 98.8113 258.627 98.8752 258.972 98.8752H259.535V100.255H258.141C257.424 100.255 257.053 99.8969 256.989 99.3222C256.644 99.8586 255.928 100.459 254.802 100.459C253.651 100.459 252.781 99.7437 252.781 98.6197ZM256.797 97.6363V97.2276C255.621 97.3681 254.623 97.598 254.623 98.4409C254.623 98.8624 254.904 99.1306 255.454 99.1306C256.158 99.1306 256.797 98.6708 256.797 97.6363Z" fill="#E20613"/>
<path d="M261.044 98.5813V95.2478H259.701V93.8685H261.044V91.8633H262.861V93.8685H264.524V95.2478H262.861V98.2492C262.861 98.6324 263.027 98.8112 263.424 98.8112H264.805V100.254H262.669C261.633 100.254 261.044 99.5775 261.044 98.5813Z" fill="#E20613"/>
<path d="M265.893 91.2822H267.824V92.9937H265.893V91.2822ZM265.957 93.8622H267.773V100.248H265.957V93.8622Z" fill="#E20613"/>
<path d="M269.091 97.0488C269.091 95.0436 270.472 93.677 272.327 93.677C274.476 93.677 275.602 95.3629 275.423 97.4958H270.907C270.958 98.6197 271.56 99.0795 272.34 99.0795C273.159 99.0795 273.555 98.5687 273.824 97.9684L275.448 98.5942C275.09 99.4116 274.284 100.459 272.34 100.459C270.37 100.459 269.091 99.1434 269.091 97.0488ZM273.632 96.2122C273.555 95.4204 273.095 94.9734 272.327 94.9734C271.598 94.9734 271.099 95.4076 270.971 96.2122H273.632Z" fill="#E20613"/>
<path d="M277.302 95.2416H276.062V93.8622H277.302V92.981C277.302 91.9848 277.865 91.3079 278.901 91.3079H280.871V92.7511H279.682C279.285 92.7511 279.119 92.9299 279.119 93.3131V93.8622H280.603V95.2416H279.119V100.248H277.302V95.2416Z" fill="#E20613"/>
<path d="M0.0447716 26.3753C1.40711 25.9858 2.76944 25.5835 4.13178 25.2067C11.1417 23.2717 18.2093 21.5539 25.296 19.9383C30.4959 18.7569 35.6958 17.5818 40.9149 16.4771C45.7182 15.4617 50.5344 14.5102 55.3505 13.5906C59.7893 12.7477 64.2345 11.943 68.6861 11.1831C72.7986 10.4806 76.924 9.83566 81.0494 9.19068C84.4968 8.65425 87.9506 8.14976 91.4044 7.66443C94.6664 7.20464 97.9283 6.78317 101.197 6.36169C103.979 6.00408 106.755 5.65285 109.543 5.32078C111.923 5.03341 114.302 4.77797 116.681 4.51615C119.029 4.25432 121.376 3.9925 123.73 3.74983C126.275 3.48801 128.821 3.25173 131.366 3.01544C133.765 2.79194 136.17 2.57481 138.568 2.37685C140.551 2.21081 142.534 2.07671 144.516 1.93622C146.384 1.80211 148.252 1.66801 150.126 1.54667C152.255 1.40618 154.385 1.27846 156.515 1.15713C158.351 1.04857 160.193 0.959163 162.028 0.863374C163.474 0.793128 164.926 0.729269 166.378 0.665409C168.041 0.595163 169.697 0.524918 171.36 0.47383C173.477 0.403584 175.601 0.339725 177.718 0.275865C179.054 0.237549 180.391 0.205619 181.728 0.180076C183.506 0.14176 185.284 0.0970579 187.062 0.084286C193.285 0.0459702 199.509 0.0268123 205.732 0.00126844C206.941 -0.00511752 208.15 0.0140404 209.358 0.0268123C211.367 0.0523562 213.375 0.084286 215.377 0.122602C216.701 0.148146 218.019 0.180076 219.343 0.218391C221.236 0.275865 223.123 0.333339 225.016 0.416356C226.628 0.486602 228.239 0.582391 229.851 0.659023C230.906 0.710111 231.968 0.742041 233.023 0.8059C234.245 0.876146 235.46 0.971935 236.682 1.04857C237.494 1.09965 238.307 1.14436 239.119 1.19544C240.449 1.27846 241.786 1.36787 243.116 1.46365C244.479 1.55944 245.847 1.65523 247.21 1.78295C249.154 1.96176 251.098 2.16611 253.043 2.37046C253.49 2.41516 253.593 2.60674 253.42 2.98352C253.337 3.16871 253.215 3.19425 253.03 3.17509C252.007 3.0793 250.99 2.9899 249.966 2.9005C248.847 2.80471 247.728 2.70253 246.608 2.61313C244.76 2.45987 242.912 2.31299 241.057 2.1725C239.758 2.07671 238.454 2.00646 237.155 1.92344C235.889 1.84043 234.622 1.75102 233.35 1.68078C232.294 1.6233 231.233 1.5786 230.177 1.5339C228.693 1.47004 227.216 1.40618 225.732 1.34232C225.195 1.31678 224.658 1.29762 224.12 1.28485C222.688 1.24653 221.249 1.2146 219.816 1.18906C217.596 1.14436 215.377 1.07411 213.158 1.05495C207.817 1.01025 202.476 0.984707 197.136 0.959163C195.946 0.952778 194.75 0.978321 193.56 0.997479C192.045 1.02302 190.529 1.05495 189.007 1.09327C186.838 1.15074 184.67 1.2146 182.502 1.29123C180.871 1.34871 179.246 1.41257 177.615 1.4892C176.068 1.55944 174.526 1.65523 172.978 1.73187C171.923 1.78295 170.861 1.82127 169.806 1.87874C168.911 1.92344 168.015 1.98092 167.12 2.03839C165.885 2.11502 164.651 2.18527 163.416 2.26829C162.182 2.3513 160.948 2.44071 159.713 2.53011C158.216 2.63867 156.726 2.74085 155.23 2.8558C153.771 2.97074 152.307 3.09208 150.848 3.21341C148.834 3.38583 146.825 3.55187 144.817 3.73706C142.61 3.94141 140.41 4.15853 138.204 4.39481C134.59 4.78436 130.983 5.16752 127.375 5.59538C124.478 5.93383 121.587 6.31699 118.696 6.71292C115.114 7.19825 111.526 7.69636 107.951 8.23278C105.002 8.67341 102.054 9.14597 99.118 9.64408C95.517 10.2571 91.9225 10.8957 88.3344 11.5471C86.3261 11.9111 84.3305 12.3134 82.3286 12.6966C82.2519 12.7093 82.1815 12.7349 82.1175 12.8179C82.4885 12.7796 82.8595 12.754 83.224 12.7093C85.5713 12.4539 87.9187 12.1921 90.266 11.9494C92.1784 11.7514 94.0908 11.579 96.0031 11.4066C98.3696 11.1895 100.736 10.9724 103.109 10.7744C105.06 10.6147 107.004 10.4615 108.955 10.3338C111.181 10.1869 113.4 9.92506 115.613 9.64408C117.666 9.38864 119.719 9.14597 121.779 8.90331C123.736 8.67341 125.693 8.4499 127.657 8.23917C129.422 8.04759 131.187 7.87517 132.959 7.70913C135.632 7.45369 138.306 7.19187 140.986 6.96197C143.256 6.76401 145.533 6.59797 147.804 6.42555C149.524 6.29145 151.245 6.16373 152.965 6.03601C154.961 5.88913 156.963 5.73587 158.958 5.59538C160.289 5.50597 161.626 5.43573 162.956 5.35271C164.126 5.27608 165.297 5.18029 166.467 5.11004C167.913 5.02064 169.365 4.95039 170.81 4.86738C172.077 4.79074 173.343 4.70134 174.616 4.62471C175.594 4.56723 176.566 4.52892 177.545 4.47783C178.664 4.42036 179.79 4.3565 180.909 4.29264C181.638 4.25432 182.374 4.22239 183.11 4.18408C184.376 4.12022 185.649 4.05636 186.915 3.9925C187.791 3.95418 188.674 3.92864 189.557 3.89032C190.938 3.83285 192.326 3.7626 193.708 3.70513C194.654 3.66681 195.594 3.63488 196.541 3.60295C198.383 3.53909 200.225 3.47523 202.067 3.41137C202.668 3.39222 203.276 3.36667 203.877 3.3539C204.856 3.33474 205.834 3.32836 206.813 3.3092C208.444 3.27727 210.075 3.24534 211.706 3.21341C212.684 3.19425 213.663 3.16871 214.642 3.16232C216.26 3.14316 217.871 3.12401 219.49 3.11762C224.159 3.09846 228.834 3.07292 233.503 3.06653C235.089 3.06653 236.669 3.09846 238.255 3.11762C239.528 3.13039 240.801 3.14316 242.074 3.16232C244.018 3.19425 245.956 3.22618 247.9 3.25811C249.371 3.28366 250.836 3.32197 252.307 3.3539C253.446 3.37944 254.591 3.41137 255.729 3.44969C257.424 3.50716 259.119 3.55825 260.814 3.64766C262.816 3.75622 264.818 3.87116 266.813 4.0372C268.777 4.19685 270.74 4.38843 272.691 4.63109C273.689 4.75243 274.674 5.02064 275.659 5.22499C275.716 5.23776 275.768 5.28885 275.819 5.32078C275.761 5.51236 275.64 5.4932 275.505 5.4485C274.405 5.11643 273.273 4.97594 272.141 4.86738C270.715 4.72688 269.282 4.59278 267.856 4.48422C266.538 4.38204 265.221 4.29902 263.903 4.23516C262.566 4.1713 261.23 4.13938 259.893 4.08829C258.441 4.0372 256.995 3.97334 255.544 3.94141C254.239 3.90948 252.934 3.90948 251.623 3.89671C248.879 3.86478 246.135 3.82008 243.391 3.80092C237.117 3.7626 230.849 3.73067 224.574 3.70513C222.873 3.69874 221.178 3.72429 219.477 3.74345C217.27 3.76899 215.07 3.80092 212.863 3.84562C211.476 3.87116 210.088 3.90309 208.7 3.94141C206.826 3.99888 204.952 4.06913 203.078 4.13299C201.888 4.17131 200.698 4.19046 199.509 4.23516C198.415 4.27348 197.328 4.33095 196.234 4.38204C195.761 4.4012 195.287 4.40759 194.814 4.43313C193.413 4.49699 192.013 4.56085 190.612 4.62471C189.748 4.66302 188.885 4.68857 188.022 4.72688C186.915 4.77797 185.809 4.84183 184.702 4.89931C183.954 4.93762 183.205 4.97594 182.457 5.01425C181.402 5.07173 180.34 5.12281 179.285 5.18029C177.967 5.25053 176.65 5.32717 175.332 5.4038C174.424 5.45488 173.509 5.51874 172.601 5.56983C171.379 5.64646 170.164 5.71671 168.943 5.79334C167.612 5.87636 166.275 5.97215 164.945 6.06155C163.826 6.13818 162.7 6.20204 161.581 6.28506C160.327 6.37446 159.08 6.47025 157.826 6.55966C156.349 6.66822 154.871 6.76401 153.394 6.87257C151.885 6.98752 150.375 7.10246 148.866 7.2238C147.126 7.36429 145.393 7.49839 143.659 7.65166C141.99 7.79853 140.321 7.9518 138.651 8.11783C136.234 8.34773 133.822 8.58401 131.405 8.82668C131.053 8.8586 130.708 8.93524 130.356 9.00548C131.437 8.94801 132.511 8.88415 133.592 8.83306C134.424 8.79475 135.255 8.76282 136.087 8.73089C137.551 8.66703 139.016 8.60317 140.481 8.53931C140.935 8.52015 141.395 8.50738 141.849 8.49461C143.007 8.46268 144.165 8.43713 145.322 8.39243C146.755 8.34134 148.188 8.2711 149.62 8.20724C150.97 8.14338 152.319 8.07952 153.675 8.00288C155.153 7.92625 156.637 7.83685 158.114 7.76022C158.926 7.71552 159.745 7.68997 160.557 7.65804C162.054 7.59418 163.551 7.53032 165.054 7.46646C165.527 7.44731 166 7.43453 166.474 7.42176C167.714 7.38983 168.949 7.3579 170.19 7.31959C172.083 7.2685 173.97 7.21741 175.863 7.16632C177.296 7.12801 178.735 7.09608 180.167 7.07053C181.357 7.05138 182.553 7.0386 183.743 7.02583C185.342 7.00667 186.941 6.98752 188.54 6.97474C190.778 6.95559 193.017 6.93643 195.255 6.93643C197.673 6.93643 200.091 6.95559 202.508 6.98113C204.6 7.00029 206.685 7.0386 208.776 7.07692C210.26 7.10246 211.744 7.14078 213.228 7.17271C214.45 7.20464 215.671 7.23018 216.899 7.2685C218.869 7.33236 220.846 7.39622 222.816 7.46646C224.478 7.52394 226.141 7.59418 227.798 7.66443C229.231 7.7219 230.663 7.78576 232.096 7.86239C233.823 7.9518 235.543 8.06036 237.27 8.14976C238.588 8.22001 239.906 8.2711 241.223 8.35411C243.123 8.46906 245.029 8.60955 246.928 8.73727C248.438 8.83945 249.954 8.92885 251.463 9.03741C252.992 9.14597 254.514 9.27369 256.042 9.39503C257.744 9.53552 259.452 9.66962 261.153 9.8165C262.822 9.96338 264.492 10.1294 266.161 10.2891C268.591 10.519 271.028 10.7425 273.452 10.9915C276.273 11.2853 279.087 11.5982 281.901 11.9175C284.85 12.2496 287.792 12.588 290.734 12.9392C291.61 13.0414 292.48 13.1755 293.344 13.3288C294.329 13.5076 294.348 13.6992 294.009 14.5804C294.15 14.6124 294.284 14.6507 294.418 14.6698C298.262 15.2829 302.119 15.8512 305.956 16.5154C309.877 17.1923 313.779 17.9586 317.687 18.6866C317.795 18.7058 317.898 18.7505 318 18.7824C318 18.8143 318 18.8463 318 18.8782C317.277 18.7696 316.548 18.6738 315.825 18.5589C310.868 17.7479 305.924 16.8985 300.961 16.1386C297.309 15.583 293.631 15.136 289.967 14.6698C287.479 14.3569 284.984 14.0823 282.49 13.8205C280.577 13.6162 278.665 13.4565 276.753 13.2777C274.744 13.0925 272.729 12.9073 270.721 12.7413C269.231 12.6136 267.734 12.5114 266.238 12.3964C264.274 12.2496 262.31 12.0963 260.341 11.9558C258.978 11.86 257.609 11.7898 256.241 11.7131C255.774 11.6876 255.301 11.6493 254.821 11.7067C255.089 11.7387 255.352 11.777 255.62 11.8089C258.454 12.1474 261.287 12.4603 264.108 12.8371C266.193 13.1117 268.265 13.4757 270.337 13.8013C270.389 13.8077 270.433 13.8141 270.484 13.8269C271.079 13.9738 271.207 14.3697 270.817 14.855C270.689 15.0147 270.529 14.9764 270.369 14.9572C269.564 14.8614 268.751 14.7656 267.945 14.6698C265.7 14.4016 263.449 14.1206 261.198 13.878C258.511 13.5906 255.819 13.3416 253.126 13.0861C251.098 12.8945 249.071 12.7157 247.043 12.5497C245.502 12.422 243.954 12.3198 242.413 12.2049C240.916 12.0963 239.426 11.9686 237.929 11.8664C236.599 11.777 235.262 11.7067 233.932 11.6237C232.697 11.5471 231.463 11.4577 230.228 11.3811C229.25 11.3236 228.278 11.2853 227.299 11.2342C226.193 11.1767 225.086 11.1129 223.98 11.0554C223.167 11.0107 222.349 10.9787 221.536 10.9404C220.251 10.8766 218.965 10.8127 217.68 10.7552C216.752 10.7169 215.825 10.7105 214.904 10.6786C214.207 10.6594 213.509 10.6211 212.806 10.5956C212.627 10.5892 212.448 10.5956 212.269 10.6275C213.362 10.6786 214.462 10.7297 215.556 10.7872C216.695 10.8446 217.833 10.9021 218.972 10.9596C219.72 10.9979 220.468 11.0362 221.217 11.0809C222.125 11.132 223.039 11.1831 223.948 11.2406C225.137 11.3172 226.321 11.3874 227.504 11.4705C228.687 11.5535 229.877 11.6429 231.06 11.7323C232.473 11.8409 233.887 11.943 235.294 12.058C236.644 12.1665 237.987 12.2879 239.33 12.4156C241.811 12.6519 244.293 12.8754 246.768 13.1372C249.18 13.3926 251.591 13.6736 254.002 13.9674C257.239 14.3633 260.468 14.7529 263.698 15.1871C267.594 15.7044 271.489 16.2152 275.345 16.9432C275.857 17.039 276.362 17.1731 276.861 17.3264C277.437 17.5052 277.52 17.6202 277.482 17.9842C277.418 18.5717 277.162 18.891 276.637 18.9229C276.164 18.9548 275.691 18.9484 275.217 18.9293C273.932 18.8782 272.646 18.8143 271.361 18.7441C269.947 18.6674 268.527 18.578 267.114 18.5014C266.071 18.4439 265.029 18.4056 263.986 18.3545C262.848 18.2971 261.709 18.2332 260.571 18.1757C259.771 18.1374 258.972 18.0991 258.179 18.0608C256.861 17.9969 255.544 17.9331 254.22 17.8756C253.305 17.8373 252.397 17.8053 251.482 17.767C249.954 17.7032 248.419 17.6393 246.89 17.5818C245.828 17.5435 244.773 17.5052 243.711 17.4733C241.607 17.4094 239.503 17.3456 237.398 17.2817C236.599 17.2562 235.799 17.237 235 17.2242C233.305 17.1923 231.604 17.1604 229.909 17.1284C229.749 17.1284 229.582 17.1284 229.416 17.1923C230.459 17.3328 231.501 17.4733 232.544 17.6138C234.546 17.882 236.548 18.1438 238.55 18.4312C241.165 18.8016 243.775 19.1783 246.385 19.5679C249.237 19.9957 252.09 20.4236 254.936 20.8898C258.313 21.439 261.69 22.0009 265.061 22.5948C268.316 23.1696 271.572 23.7762 274.821 24.3893C278.889 25.1492 282.957 25.9475 287.024 26.6882C291.099 27.429 295.179 28.1187 299.253 28.8467C299.823 28.9489 300.379 29.1468 300.942 29.3001C301.166 29.3576 301.243 29.5236 301.185 29.7088C301.057 30.1239 300.91 30.5326 300.737 30.9285C300.654 31.1201 300.443 31.1137 300.264 31.0882C299.797 31.0179 299.324 30.9604 298.863 30.8519C294.783 29.8812 290.638 29.249 286.526 28.4444C282.573 27.6717 278.62 26.899 274.661 26.1454C270.913 25.4302 267.165 24.7277 263.404 24.0508C260.053 23.4505 256.695 22.863 253.331 22.3202C249.244 21.6625 245.144 21.0494 241.05 20.4364C238.166 20.0021 235.275 19.5934 232.384 19.1975C229.787 18.8399 227.178 18.5142 224.574 18.1885C222.227 17.8947 219.88 17.6138 217.532 17.3328C216.17 17.1731 214.814 17.0326 213.452 16.8858C213.292 16.8666 213.126 16.8794 212.959 16.8794C209.282 16.8794 205.61 16.873 201.933 16.8794C199.841 16.8858 197.75 16.8985 195.658 16.9241C193.407 16.9496 191.149 16.9816 188.898 17.0199C187.235 17.0454 185.566 17.0837 183.903 17.1157C182.547 17.1476 181.191 17.1731 179.841 17.2115C177.558 17.2753 175.274 17.3392 172.991 17.4094C171.098 17.4669 169.211 17.5371 167.318 17.601C165.636 17.6649 163.96 17.7287 162.284 17.799C160.8 17.8628 159.317 17.9203 157.839 17.9969C156.029 18.0863 154.225 18.1885 152.415 18.2843C151.015 18.3545 149.614 18.412 148.213 18.4886C146.697 18.5717 145.188 18.6738 143.672 18.7696C142.45 18.8399 141.229 18.9037 140.007 18.9804C138.709 19.0634 137.404 19.1592 136.106 19.2486C134.526 19.3571 132.952 19.4529 131.373 19.5679C129.812 19.6828 128.251 19.8042 126.691 19.9255C124.887 20.066 123.084 20.2001 121.28 20.3533C119.54 20.5002 117.807 20.6599 116.067 20.8195C113.534 21.0494 111.002 21.2729 108.475 21.5284C105.898 21.7838 103.32 22.0712 100.743 22.3585C98.3121 22.6267 95.8816 22.9013 93.4575 23.1887C91.2573 23.4505 89.0571 23.7379 86.8569 24.0317C84.3369 24.3637 81.8169 24.6958 79.2969 25.047C76.713 25.411 74.1354 25.7878 71.5514 26.1773C68.7116 26.6052 65.8782 27.0331 63.0448 27.4801C60.3202 27.9079 57.6019 28.3486 54.8836 28.802C51.5193 29.3639 48.1615 29.9259 44.8036 30.5134C41.4457 31.1009 38.0942 31.7076 34.7428 32.3143C31.935 32.8188 29.1271 33.3296 26.3193 33.8469C26.1019 33.8852 25.8844 33.9618 25.6669 34.0193C25.539 34.0193 25.4047 34.0193 25.2768 34.0193C25.1041 33.8086 24.8994 33.617 24.7587 33.3871C24.3749 32.7804 24.3749 32.4484 25.2 32.2504C27.6689 31.6501 30.1249 30.986 32.6065 30.424C36.975 29.4342 41.3562 28.4571 45.7438 27.5567C50.0739 26.6691 54.4167 25.8517 58.7595 25.0534C62.9105 24.2871 67.0743 23.5655 71.238 22.8694C74.839 22.2627 78.4463 21.6944 82.0536 21.158C85.4051 20.6535 88.7629 20.2001 92.1208 19.7467C95.0437 19.3507 97.9667 18.974 100.896 18.6227C104.695 18.1693 108.501 17.7415 112.306 17.3136C114.116 17.1093 115.933 16.9369 117.749 16.7389C118.216 16.6878 118.677 16.5984 119.137 16.5282C119.406 16.5282 119.675 16.5282 119.943 16.5282C119.943 16.509 119.943 16.4834 119.937 16.4643C119.675 16.4898 119.406 16.509 119.144 16.5345C118.722 16.5665 118.299 16.6048 117.877 16.6431C116.157 16.7964 114.436 16.9432 112.722 17.1157C110.631 17.32 108.539 17.5307 106.454 17.7543C104.235 17.9969 102.022 18.2524 99.8023 18.5142C97.0329 18.8399 94.2698 19.1656 91.5068 19.5168C88.6606 19.8808 85.8208 20.2703 82.981 20.6599C80.154 21.0494 77.3334 21.4453 74.5128 21.8732C71.4811 22.3266 68.4558 22.7992 65.4305 23.2973C61.7145 23.9103 58.0048 24.5362 54.2952 25.2003C50.5408 25.8708 46.7927 26.5924 43.0447 27.2949C38.1262 28.2145 33.2077 29.1532 28.2893 30.0664C26.3961 30.4176 24.4901 30.6858 22.6033 31.0371C21.7014 31.2031 21.3113 30.5773 21.0746 29.9387C20.9851 29.6896 21.0746 29.447 21.3113 29.3001C21.6439 29.0957 21.9701 28.8786 22.3282 28.7253C23.1661 28.3677 24.0168 28.0293 24.8674 27.7036C25.5518 27.4418 26.249 27.2246 26.9397 26.982C26.8118 26.4519 26.8502 26.3498 27.3299 26.1326C27.7328 25.9475 28.1358 25.7814 28.5515 25.6282C31.8518 24.4084 35.2097 23.3547 38.5803 22.3266C38.7147 22.2883 38.8426 22.2436 38.9769 22.2053C38.1006 22.2691 37.25 22.4096 36.3993 22.5629C32.8496 23.1951 29.3062 23.8209 25.7629 24.4787C22.5713 25.0662 19.3861 25.6856 16.2009 26.2987C14.9857 26.535 13.7705 26.784 12.5616 27.0458C12.2482 27.1161 11.9924 27.0331 11.8261 26.8032C11.6534 26.5733 11.5319 26.2987 11.4296 26.0241C11.3464 25.8133 11.4423 25.6409 11.6534 25.5515C11.7749 25.5004 11.9029 25.4685 12.0244 25.4366C13.6617 24.9959 15.2991 24.5489 16.9365 24.1211C21.3113 22.9907 25.6989 21.9371 30.1249 21.0303C33.9881 20.2384 37.8576 19.4657 41.7399 18.7441C44.8164 18.1693 47.9056 17.6521 50.9949 17.1412C54.0202 16.6431 57.0454 16.1705 60.0771 15.7171C62.4756 15.3595 64.8869 15.0402 67.2917 14.7082C68.3215 14.5677 69.3704 14.4783 70.3874 14.2739C74.0011 13.5459 77.5956 12.754 81.2093 12.0324C84.6951 11.3364 88.1873 10.6786 91.6795 10.04C94.66 9.4972 97.6533 8.99271 100.64 8.50099C103.211 8.07952 105.789 7.68359 108.366 7.29404C110.976 6.89811 113.592 6.52134 116.202 6.15734C118.51 5.83804 120.819 5.54429 123.128 5.24415C123.998 5.1292 124.868 5.02064 125.731 4.90569C125.565 4.86099 125.405 4.84183 125.245 4.86099C124.292 4.95678 123.333 5.05257 122.38 5.16113C119.272 5.51236 116.163 5.8572 113.055 6.2212C109.774 6.60436 106.486 6.9939 103.205 7.41538C99.2139 7.93264 95.2292 8.46906 91.2446 9.03741C87.2087 9.61215 83.1793 10.206 79.1562 10.8319C75.4849 11.4066 71.8201 12.0133 68.1616 12.6583C63.2495 13.5204 58.3374 14.3952 53.4381 15.334C48.4749 16.2855 43.518 17.2753 38.5803 18.3482C31.1291 19.9702 23.6906 21.6752 16.2521 23.3547C11.1289 24.5106 6.01219 25.6792 0.901828 26.8543C0.524467 26.9437 0.243046 26.9181 0 26.618C0.0447716 26.5094 0.0447716 26.4392 0.0447716 26.3753ZM69.4088 24.766C69.6071 24.7341 69.8053 24.7086 70.0036 24.6766C70.7264 24.5617 71.4427 24.434 72.1655 24.3318C75.082 23.9231 78.0049 23.508 80.9279 23.1121C83.5246 22.7609 86.1278 22.4096 88.7309 22.0903C91.6539 21.7327 94.5832 21.4006 97.5126 21.0622C99.764 20.8067 102.009 20.5577 104.26 20.3278C106.742 20.0788 109.217 19.8489 111.699 19.6126C113.4 19.4529 115.101 19.2997 116.809 19.1528C118.542 19.0059 120.282 18.8718 122.022 18.7313C123.141 18.6419 124.26 18.5461 125.38 18.4631C126.908 18.3482 128.431 18.246 129.959 18.1374C131.213 18.048 132.46 17.9586 133.714 17.8756C134.897 17.799 136.087 17.7287 137.276 17.6521C138.152 17.5946 139.029 17.5371 139.911 17.486C141.21 17.4094 142.514 17.3328 143.813 17.2625C144.868 17.2051 145.93 17.154 146.985 17.0965C147.714 17.0582 148.45 17.0135 149.179 16.9752C150.286 16.9177 151.392 16.8602 152.499 16.8091C153.362 16.7708 154.225 16.7389 155.089 16.707C156.49 16.6431 157.89 16.5792 159.291 16.5218C159.764 16.5026 160.238 16.4962 160.711 16.4707C161.798 16.426 162.892 16.3685 163.979 16.3238C165.073 16.2855 166.16 16.2599 167.254 16.2216C168.898 16.1642 170.541 16.0939 172.185 16.03C173.247 15.9917 174.302 15.9598 175.364 15.9343C176.618 15.9023 177.878 15.864 179.131 15.8385C180.5 15.8065 181.869 15.7682 183.237 15.7427C184.952 15.7044 186.666 15.6724 188.373 15.6469C189.403 15.6277 190.433 15.615 191.456 15.6022C193.644 15.583 195.831 15.5639 198.018 15.5447C198.293 15.5447 198.575 15.5447 198.85 15.5383C198.927 15.5383 199.01 15.5256 199.087 15.5192C198.543 15.4234 197.993 15.3723 197.449 15.3276C195.601 15.1743 193.746 15.0083 191.898 14.8678C190.401 14.7529 188.904 14.6571 187.408 14.5613C185.521 14.4336 183.634 14.2675 181.747 14.1973C180.084 14.1334 178.415 14.1653 176.752 14.1909C174.827 14.2292 172.902 14.3122 170.976 14.3761C170.081 14.408 169.186 14.4399 168.284 14.4783C166.653 14.5549 165.028 14.6443 163.397 14.7209C161.702 14.8039 160.007 14.8678 158.312 14.9636C156.49 15.0658 154.667 15.1871 152.844 15.3084C150.861 15.4362 148.872 15.5575 146.889 15.698C144.632 15.8512 142.367 16.0173 140.11 16.1897C137.724 16.3749 135.332 16.5665 132.946 16.7708C130.362 16.9943 127.785 17.2178 125.207 17.4605C122.252 17.7415 119.304 18.0352 116.355 18.3354C114.347 18.5397 112.338 18.7505 110.33 18.974C108.162 19.2166 105.994 19.4785 103.825 19.7339C101.561 20.0021 99.2971 20.2767 97.0329 20.5641C94.9286 20.8323 92.8307 21.1069 90.7329 21.3943C88.085 21.7583 85.437 22.1286 82.7955 22.5182C80.3778 22.8758 77.9602 23.259 75.5489 23.6357C73.7644 23.9167 71.98 24.2169 70.1955 24.517C70.1251 24.5298 70.0612 24.6192 69.9908 24.6639C69.799 24.6575 69.5751 24.5042 69.4088 24.766C69.2425 24.7533 69.0698 24.7469 68.9035 24.7341C68.9035 24.7533 68.9035 24.766 68.9035 24.7852C69.0762 24.7788 69.2425 24.7724 69.4088 24.766ZM62.6483 21.5411C62.8466 21.5156 63.0448 21.4837 63.2495 21.4581C63.3071 21.439 63.3646 21.407 63.4286 21.4006C66.4091 20.9472 69.3896 20.4747 72.3701 20.0468C76.7577 19.4274 81.1517 18.8207 85.5458 18.2524C89.4729 17.7415 93.4 17.2753 97.3335 16.8283C100.57 16.4643 103.813 16.1578 107.055 15.8321C108.705 15.666 110.362 15.5064 112.019 15.3595C113.739 15.2063 115.46 15.0722 117.18 14.938C118.383 14.8423 119.585 14.7592 120.787 14.6698C121.99 14.5868 123.192 14.5038 124.395 14.4208C125.578 14.3378 126.768 14.2611 127.951 14.1845C128.846 14.127 129.742 14.0887 130.637 14.0376C131.987 13.961 133.336 13.8716 134.686 13.8013C135.824 13.7439 136.963 13.7056 138.108 13.6545C138.536 13.6353 138.965 13.597 139.387 13.5714C139.24 13.5076 139.099 13.5012 138.952 13.5076C138.184 13.5267 137.423 13.5459 136.656 13.5651C135.447 13.597 134.244 13.6289 133.036 13.6609C132.479 13.6736 131.929 13.6864 131.373 13.7056C129.627 13.7694 127.887 13.8333 126.141 13.8971C125.245 13.9291 124.35 13.961 123.455 13.9993C122.201 14.0568 120.947 14.127 119.694 14.1909C118.523 14.2484 117.346 14.2675 116.176 14.3569C114.372 14.491 112.569 14.6634 110.771 14.8423C107.868 15.1232 104.964 15.417 102.066 15.7235C99.6168 15.9853 97.1736 16.2536 94.7303 16.5537C91.9801 16.8858 89.2298 17.2178 86.486 17.6074C82.9234 18.1119 79.3609 18.6547 75.8047 19.2103C72.9585 19.6573 70.1124 20.1554 67.2726 20.6343C66.0061 20.8514 64.7398 21.0813 63.467 21.3049C63.3774 21.324 63.2047 21.2665 63.2559 21.4709C63.0384 21.4326 62.8146 21.2729 62.6483 21.5411C62.482 21.5284 62.3157 21.522 62.1494 21.5156C62.1494 21.5347 62.1494 21.5539 62.1494 21.5795C62.3157 21.5667 62.482 21.5539 62.6483 21.5411ZM244.152 14.4272C215.185 11.5854 186.148 11.1256 157.072 11.975C157.206 12.0069 157.347 12.026 157.487 12.026C159.381 12.0452 161.274 12.0644 163.167 12.0835C163.787 12.0899 164.408 12.1091 165.028 12.1218C166.998 12.1729 168.974 12.224 170.944 12.2751C172.102 12.307 173.26 12.339 174.417 12.3773C174.859 12.39 175.3 12.4028 175.735 12.422C177.021 12.4858 178.306 12.5816 179.592 12.6008C180.73 12.6199 181.875 12.5369 183.014 12.5178C184.203 12.4922 185.399 12.4731 186.589 12.4731C192.403 12.4986 198.217 12.3964 204.031 12.5689C205.534 12.6136 207.03 12.6327 208.533 12.671C210.471 12.7157 212.416 12.7604 214.354 12.8115C214.878 12.8243 215.396 12.8498 215.914 12.869C217.379 12.9329 218.844 12.9967 220.308 13.0606C221.172 13.0989 222.035 13.1244 222.899 13.1691C224.056 13.2266 225.208 13.2969 226.365 13.3543C227.357 13.4054 228.354 13.4437 229.346 13.5012C230.529 13.5714 231.719 13.6672 232.902 13.7439C234.188 13.8269 235.473 13.9035 236.752 13.9865C238.914 14.1334 241.076 14.2803 243.231 14.4208C243.538 14.4463 243.845 14.4272 244.152 14.4272ZM203.596 14.3378C203.589 14.3442 203.589 14.3442 203.583 14.3505C205.214 14.5102 206.851 14.6634 208.482 14.8231C210.1 14.9827 211.725 15.1488 213.343 15.3084C214.168 15.3914 214.993 15.5064 215.825 15.5383C217.142 15.5894 218.466 15.583 219.79 15.6022C222.157 15.6341 224.523 15.666 226.89 15.7044C228.438 15.7299 229.985 15.7682 231.54 15.8002C232.991 15.8321 234.443 15.8704 235.895 15.8959C236.855 15.9151 237.82 15.9215 238.78 15.9406C239.381 15.9534 239.982 15.979 240.59 15.9981C241.863 16.0428 243.129 16.0875 244.402 16.1258C244.517 16.1322 244.626 16.1131 244.741 16.1003C244.268 16.0173 243.801 15.9662 243.334 15.9343C241.907 15.8257 240.475 15.7171 239.042 15.6213C237.724 15.5256 236.407 15.4298 235.096 15.3531C234.117 15.2957 233.145 15.251 232.166 15.2063C230.798 15.1424 229.429 15.0785 228.06 15.0147C227.101 14.9764 226.135 14.9444 225.176 14.9125C223.922 14.8678 222.668 14.8103 221.415 14.7656C220.257 14.7273 219.099 14.7018 217.942 14.6634C216.049 14.5996 214.162 14.5293 212.269 14.4783C211.271 14.4463 210.279 14.4527 209.282 14.4336C208.335 14.4144 207.389 14.3633 206.442 14.3442C205.483 14.325 204.536 14.3378 203.596 14.3378ZM34.4805 24.6256C34.4869 24.6575 34.4933 24.6958 34.4997 24.7277C41.0172 22.946 47.5794 21.3815 54.1928 19.983C54.1225 19.951 54.0585 19.9383 54.001 19.9446C52.5171 20.1362 51.0268 20.3214 49.543 20.5322C48.6092 20.6663 47.6562 20.7493 46.7544 20.9919C43.8442 21.7838 40.9532 22.6331 38.0623 23.4825C36.8598 23.8337 35.6766 24.2424 34.4805 24.6256ZM35.5615 26.3817C32.6065 27.1033 29.6004 27.512 26.7798 28.6487C26.7862 28.6806 26.7926 28.7126 26.799 28.7509C29.8627 28.2017 32.9327 27.6589 36.0284 27.1033C35.8557 26.8351 35.7277 26.6371 35.5615 26.3817ZM179.291 9.98892C183.787 9.98892 188.29 9.98892 192.109 9.98892C188.297 9.85482 183.794 9.79734 179.291 9.98892ZM195.23 10.0528C195.23 10.04 195.23 10.0272 195.23 10.0145C194.661 10.0145 194.085 10.0145 193.516 10.0145C193.516 10.0272 193.516 10.04 193.516 10.0528C194.085 10.0528 194.661 10.0528 195.23 10.0528ZM196.611 10.0975C196.605 10.1039 196.599 10.1166 196.592 10.123C196.829 10.123 197.065 10.123 197.302 10.123C197.302 10.1166 197.302 10.1039 197.302 10.0975C197.072 10.0975 196.842 10.0975 196.611 10.0975ZM198.671 10.1039C198.671 10.1166 198.671 10.1294 198.671 10.1422C198.882 10.1422 199.099 10.1422 199.31 10.1422C199.31 10.1294 199.31 10.1166 199.31 10.1039C199.099 10.1039 198.882 10.1039 198.671 10.1039ZM211.629 10.5381C211.629 10.5253 211.629 10.5062 211.629 10.4934C211.386 10.4934 211.143 10.4934 210.906 10.4934C210.906 10.5062 210.906 10.5253 210.906 10.5381C211.149 10.5381 211.392 10.5381 211.629 10.5381ZM121.024 16.3749C120.781 16.3621 120.615 16.3493 120.442 16.3366C120.442 16.3621 120.442 16.3877 120.442 16.4132C120.608 16.4004 120.775 16.3877 121.024 16.3749ZM208.482 10.3912C208.469 10.404 208.457 10.4232 208.444 10.4359C208.617 10.4359 208.789 10.4359 208.956 10.4359C208.956 10.4232 208.956 10.404 208.956 10.3912C208.796 10.3912 208.642 10.3912 208.482 10.3912ZM210.247 10.519C210.241 10.4998 210.241 10.487 210.235 10.4679C210.126 10.4743 210.024 10.4806 209.915 10.487C209.915 10.4998 209.915 10.5062 209.915 10.519C210.03 10.519 210.139 10.519 210.247 10.519ZM201.101 10.2252C201.095 10.2188 201.095 10.206 201.089 10.1997C201.012 10.1997 200.941 10.1997 200.865 10.1997C200.865 10.206 200.865 10.2188 200.865 10.2252C200.948 10.2252 201.025 10.2252 201.101 10.2252ZM205.642 10.2954C205.642 10.3082 205.642 10.3274 205.642 10.3401C205.777 10.3401 205.911 10.3401 206.045 10.3401C206.045 10.3274 206.045 10.3082 206.045 10.2954C205.911 10.2954 205.777 10.2954 205.642 10.2954ZM202.828 10.2444C202.828 10.2316 202.828 10.2188 202.828 10.206C202.713 10.206 202.598 10.206 202.483 10.206C202.483 10.2188 202.483 10.2316 202.483 10.2444C202.598 10.2444 202.713 10.2444 202.828 10.2444Z" fill="black"/>
</svg>
