<svg width="20" height="20" viewBox="0 0 20 20" fill="none" xmlns="http://www.w3.org/2000/svg">
<path d="M19.3804 15.0661L19.9351 16.1873C20.0875 16.4959 19.9625 16.8709 19.6539 17.0233L17.0951 18.3085C16.47 18.621 15.7043 18.3554 15.4074 17.7186L12.958 12.4996H7.50058C6.87944 12.4996 6.35206 12.0425 6.26221 11.4253C4.93788 2.15913 5.01601 2.73339 5.00039 2.499C5.00039 1.07704 6.18407 -0.0636503 7.62169 0.0027598C8.92257 0.0613569 9.96562 1.13173 10.0008 2.43259C10.0359 3.71782 9.09446 4.7921 7.8678 4.97179L8.0475 6.24921H13.126C13.4698 6.24921 13.7511 6.53048 13.7511 6.87425V8.12432C13.7511 8.46809 13.4698 8.74935 13.126 8.74935H8.4069L8.5866 9.99943H13.7511C14.2355 9.99943 14.6769 10.2807 14.884 10.7182L17.1302 15.4997L18.5444 14.7849C18.853 14.6286 19.2281 14.7575 19.3804 15.0661ZM12.165 13.7496H11.2079C10.9032 15.867 9.07883 17.4999 6.87553 17.4999C4.46128 17.4999 2.50019 15.5388 2.50019 13.1246C2.50019 11.5034 3.38698 10.0854 4.69958 9.32751C4.55504 8.31183 4.43394 7.45631 4.32846 6.73752C1.79701 7.7532 0 10.2338 0 13.1246C0 16.9139 3.08618 20 6.87553 20C9.68435 20 12.1025 18.3085 13.169 15.8904L12.165 13.7496Z" fill="black"/>
</svg>
